# xmcd
#
# Track frame offsets:
# 150
# 17517
# 29710
# 52852
# 67950
# 89345
# 105277
# 115427
# 136692
# 151235
# 163377
# 179762
# 195565
# 212902
#
# Disc length: 2932 seconds
#
#
# Revision: 2
# Processed by: cddbd v1.5.1PL2 Copyright (c) Steve Scherf et al.
# Submitted via: FreeRIP 2.944 
#
DISCID=bc0b720e
DTITLE=Alvin Youngblood Hart - Big Mama's Door
DYEAR=1996
DGENRE=Blues
TTITLE0=Big Mama's Door
TTITLE1=Joe Friday
TTITLE2=Them Fair Weather Friends
TTITLE3=France Blues
TTITLE4=Gallows Pole
TTITLE5=Pony Blues
TTITLE6=Amazed 'N' Amused
TTITLE7=Things 'Bout Coming My Way
TTITLE8=When I was A Cowboy
TTITLE9=Rest Your Saddle
TTITLE10=If Blues Were Money
TTITLE11=Hillbilly Willie's Blues
TTITLE12=Livin' In A Strain
TTITLE13=That Kate Adams Jive
EXTD=
EXTT0=
EXTT1=
EXTT2=
EXTT3=
EXTT4=
EXTT5=
EXTT6=
EXTT7=
EXTT8=
EXTT9=
EXTT10=
EXTT11=
EXTT12=
EXTT13=
PLAYORDER=
